PathFileType	4	(X/Y/Z)	/Users/itak/Documents/Research/Walk-IL/dataset/trc/00410_00012.trc
DataRate	CameraRate	NumFrames	NumMarkers	Units	OrigDataRate	OrigDataStartFrame	OrigNumFrames
100.000000	100.000000	4	56	mm	100.000000	263	527
Frame#	Time	RPSI			LPSI			L3			STRN			T10			C7			CLAV			RBAK			LBAK			LSHO			LUPA			LAEL			LAOL			LWTS			LWPS			LFRA			LIFD			LHPS			LHTS			RSHO			RUPA			RAEL			RAOL			RWTS			RWPS			RFRA			RIFD			RHTS			RHPS			RBHD			LFHD			RFHD			LBHD			LHIP			RHIP			RASI			LASI			LKNE			LTHI			LANK			LTIP			LTOE			LMT1			LMT5			LHEE			RKNE			RTHI			RANK			RTIP			RTOE			RMT1			RMT5			RHEE			*53			*54			*55			
		X1	Y1	Z1	X2	Y2	Z2	X3	Y3	Z3	X4	Y4	Z4	X5	Y5	Z5	X6	Y6	Z6	X7	Y7	Z7	X8	Y8	Z8	X9	Y9	Z9	X10	Y10	Z10	X11	Y11	Z11	X12	Y12	Z12	X13	Y13	Z13	X14	Y14	Z14	X15	Y15	Z15	X16	Y16	Z16	X17	Y17	Z17	X18	Y18	Z18	X19	Y19	Z19	X20	Y20	Z20	X21	Y21	Z21	X22	Y22	Z22	X23	Y23	Z23	X24	Y24	Z24	X25	Y25	Z25	X26	Y26	Z26	X27	Y27	Z27	X28	Y28	Z28	X29	Y29	Z29	X30	Y30	Z30	X31	Y31	Z31	X32	Y32	Z32	X33	Y33	Z33	X34	Y34	Z34	X35	Y35	Z35	X36	Y36	Z36	X37	Y37	Z37	X38	Y38	Z38	X39	Y39	Z39	X40	Y40	Z40	X41	Y41	Z41	X42	Y42	Z42	X43	Y43	Z43	X44	Y44	Z44	X45	Y45	Z45	X46	Y46	Z46	X47	Y47	Z47	X48	Y48	Z48	X49	Y49	Z49	X50	Y50	Z50	X51	Y51	Z51	X52	Y52	Z52	X53	Y53	Z53	X54	Y54	Z54	X55	Y55	Z55	X56	Y56	Z56	

264	2.63	-358.3006591796875	957.0191650390625	779.076904296875	-337.7615051269531	951.5806274414062	646.0757446289062	-347.8231506347656	1031.703735351562	721.7418823242188	-114.7920455932617	1186.266845703125	758.6105346679688	-354.6734924316406	1134.063720703125	723.522705078125	-324.4606628417969	1383.760864257812	724.0267944335938	-167.4147644042969	1306.107543945312	749.6441040039062	-373.8565979003906	1239.043701171875	787.6390991210938	-325.3245239257812	1348.020874023438	620.4188232421875	-233.2269439697266	1364.152954101562	581.0216064453125	-264.600341796875	1253.855834960938	506.9509582519531	-278.0479736328125	1057.725708007812	477.0933227539062	-338.4735412597656	1044.915649414062	534.5994262695312	-243.3577880859375	826.820556640625	525.3645629882812	-282.4096069335938	826.8610229492188	452.5203552246094	-281.3311157226562	953.0140991210938	464.194580078125	-296.1153259277344	655.26904296875	521.4473266601562	-296.5067749023438	739.2510375976562	464.2899475097656	-253.0184020996094	727.7076416015625	508.9634704589844	-284.2204284667969	1364.22412109375	887.74951171875	-302.2016296386719	1299.792602539062	946.957275390625	-281.6040344238281	1039.7646484375	996.6044921875	-298.3722229003906	1025.698608398438	899.1774291992188	-108.2288360595703	859.1144409179688	967.8655395507812	-144.3236541748047	838.9554443359375	1028.236328125	-244.4599761962891	979.0111083984375	1012.3740234375	-69.05162811279297	690.4884643554688	972.806640625	-64.12625885009766	761.3991088867188	989.2997436523438	-118.4000854492188	753.9942626953125	1030.216918945312	-273.0694274902344	1579.289916992188	820.6182250976562	-140.90283203125	1565.597412109375	671.0755615234375	-141.6397399902344	1576.96337890625	793.33544921875	-290.23779296875	1563.837280273438	659.8323364257812	-230.9983215332031	952.660400390625	553.0140991210938	-300.45654296875	927.100830078125	908.914794921875	-159.3946685791016	936.7788696289062	881.4071655273438	-128.3581237792969	948.67431640625	621.9969482421875	-74.11446380615234	471.18994140625	647.5730590820312	-113.541130065918	604.0421142578125	609.5775756835938	-176.3754272460938	38.57071685791016	701.8307495117188	-119.1085205078125	237.1348419189453	664.978271484375	28.79257774353027	44.78802871704102	789.233642578125	-52.64591217041016	45.43696212768555	812.165771484375	-49.39426803588867	40.36685562133789	706.577392578125	-219.9000091552734	38.33243179321289	753.515380859375	-284.7836303710938	444.1695556640625	906.8352661132812	-230.2952423095703	696.0707397460938	916.9422607421875	-625.2396240234375	174.0698852539062	863.9501953125	-356.0420532226562	338.0511169433594	896.313720703125	-540.383056640625	38.25123977661133	791.6959228515625	-574.7235107421875	94.41082763671875	765.8679809570312	-600.6495971679688	90.10892486572266	863.8727416992188	-665.0828857421875	235.4238586425781	808.9285888671875	nan	nan	nan	nan	nan	nan	nan	nan	nan	
265	2.64	-349.363525390625	957.8911743164062	778.2816162109375	-328.4279174804688	953.2386474609375	645.321533203125	-338.2310485839844	1033.684326171875	720.095703125	-105.0822219848633	1187.771118164062	758.3790283203125	-343.7395935058594	1135.67724609375	722.0092163085938	-314.3888854980469	1385.5478515625	722.7098388671875	-157.5810089111328	1307.65234375	749.1110229492188	-364.2335815429688	1240.944091796875	786.0118408203125	-314.96484375	1349.934204101562	618.9794921875	-222.5376129150391	1365.96630859375	580.2565307617188	-252.8162994384766	1255.37548828125	505.9598999023438	-264.2579345703125	1059.268798828125	475.6404113769531	-325.1802368164062	1045.72119140625	532.5443725585938	-226.1121368408203	829.138671875	523.5284423828125	-265.7593688964844	828.2622680664062	451.0615234375	-266.2667541503906	954.4974975585938	462.7399597167969	-275.1681823730469	656.6073608398438	520.5855712890625	-278.0968322753906	740.3612060546875	463.2347717285156	-233.6778717041016	729.9412841796875	507.3605651855469	-274.9242858886719	1365.97265625	886.6268310546875	-293.1498718261719	1301.563354492188	945.7474975585938	-272.8412780761719	1041.546875	995.5090942382812	-289.9008483886719	1027.4384765625	898.2647705078125	-102.0087356567383	858.3682861328125	967.0648803710938	-138.1199951171875	839.2274780273438	1027.778076171875	-236.3000640869141	980.572998046875	1011.54345703125	-66.39024353027344	688.9239501953125	972.0765380859375	-59.80815124511719	759.7593994140625	988.35791015625	-113.8228149414062	753.6602783203125	1029.7763671875	-263.0897827148438	1581.178344726562	819.4042358398438	-131.1153869628906	1567.421142578125	669.6865844726562	-131.6859588623047	1579.0791015625	791.9496459960938	-280.4755859375	1565.305053710938	658.69580078125	-221.5785827636719	953.9778442382812	552.3084716796875	-291.3170166015625	927.94287109375	907.9825439453125	-150.2422485351562	938.4853515625	880.7069702148438	-118.9117126464844	949.5582885742188	621.1953125	-71.73048400878906	470.4941711425781	646.1621704101562	-109.0871810913086	604.0675048828125	608.451171875	-176.4796295166016	38.32767486572266	701.6118774414062	-118.2556076049805	236.8443756103516	664.1448364257812	28.67901420593262	44.81172180175781	789.0885620117188	-52.69618988037109	45.68197631835938	811.9882202148438	-49.36074829101562	40.16397094726562	706.379638671875	-219.9525299072266	38.42269515991211	753.3120727539062	-261.6201782226562	445.0198669433594	909.4789428710938	-216.3787536621094	697.958984375	917.765869140625	-604.0136108398438	178.5775146484375	868.474853515625	-332.6758728027344	339.3303833007812	899.1082763671875	-520.3277587890625	39.68514251708984	796.9832763671875	-554.3209228515625	98.09447479248047	770.7764282226562	-579.9450073242188	94.68289184570312	868.8956298828125	-643.7364501953125	239.98291015625	813.376708984375	nan	nan	nan	nan	nan	nan	nan	nan	nan	
266	2.65	-340.5771484375	958.7307739257812	777.6409912109375	-319.4225158691406	954.7698364257812	644.6996459960938	-328.9281616210938	1035.669799804688	718.6226196289062	-95.45914459228516	1189.162963867188	758.1845703125	-333.1090087890625	1137.310302734375	720.6215209960938	-304.4020690917969	1387.326904296875	721.4501342773438	-147.8335876464844	1309.070678710938	748.6198120117188	-354.6806030273438	1242.758178710938	784.45849609375	-304.697998046875	1351.791748046875	617.5880737304688	-211.9394378662109	1367.67138671875	579.5337524414062	-241.1237182617188	1256.774047851562	505.0071411132812	-250.4700927734375	1060.739990234375	474.1385498046875	-311.8639221191406	1046.393432617188	530.44677734375	-208.6553955078125	831.4974975585938	521.5045776367188	-248.9406280517578	829.7152709960938	449.4299926757812	-251.1542510986328	955.9434814453125	461.1861877441406	-253.7856903076172	657.9835815429688	519.1434326171875	-259.3434448242188	741.5679931640625	461.8323974609375	-213.9695281982422	732.2781982421875	505.390625	-265.6614685058594	1367.620483398438	885.5729370117188	-284.2058410644531	1303.2197265625	944.57275390625	-264.5007629394531	1043.18115234375	994.4804077148438	-281.7239685058594	1029.05322265625	897.3665161132812	-96.09473419189453	857.70849609375	966.3711547851562	-132.2635192871094	839.4619750976562	1027.350708007812	-228.5417938232422	981.9848022460938	1010.756408691406	-63.60992431640625	687.6201782226562	971.4453735351562	-55.62475967407227	758.3319702148438	987.57177734375	-109.4171600341797	753.3828735351562	1029.365112304688	-253.0879974365234	1583.010986328125	818.2122802734375	-121.3101043701172	1569.146240234375	668.3156127929688	-121.7065277099609	1581.1005859375	790.5767822265625	-270.697998046875	1566.696411132812	657.582763671875	-212.5679473876953	955.1253051757812	551.6194458007812	-282.1490478515625	928.8031616210938	907.1343383789062	-141.1226043701172	940.1656494140625	879.9291381835938	-109.7633209228516	950.3527221679688	620.2702026367188	-69.54145050048828	469.8360290527344	644.7905883789062	-104.8919906616211	604.0755004882812	607.3572387695312	-176.6089477539062	38.11436462402344	701.41015625	-117.5111618041992	236.5736389160156	663.3462524414062	28.57055854797363	44.82651519775391	788.9451293945312	-52.74093246459961	45.92361450195312	811.8142700195312	-49.33438491821289	39.97214889526367	706.1831665039062	-220.0066223144531	38.52162933349609	753.14697265625	-238.2430419921875	446.3615417480469	911.7459716796875	-202.4181213378906	700.0679931640625	918.528564453125	-581.4741821289062	182.1396179199219	872.905517578125	-308.8459167480469	340.9268188476562	901.5751953125	-497.9654235839844	41.14990615844727	802.791748046875	-531.8789672851562	100.886344909668	775.9263305664062	-557.10791015625	98.62025451660156	874.174072265625	-621.4885864257812	243.0856018066406	817.4789428710938	nan	nan	nan	nan	nan	nan	nan	nan	nan	
267	2.66	-331.8579406738281	959.5980834960938	777.182861328125	-310.6939392089844	956.2001953125	644.2559204101562	-319.8502502441406	1037.629760742188	717.4048461914062	-85.91194915771484	1190.500366210938	757.9803466796875	-322.8029479980469	1138.966186523438	719.4147338867188	-294.5158386230469	1389.094970703125	720.250244140625	-138.1829223632812	1310.413452148438	748.141357421875	-345.1968078613281	1244.5068359375	783.0057983398438	-294.5506896972656	1353.59912109375	616.2618408203125	-201.4767456054688	1369.29833984375	578.8435668945312	-229.5763092041016	1258.097290039062	504.093994140625	-236.7625579833984	1062.1767578125	472.6033325195312	-298.5870971679688	1046.990112304688	528.3381958007812	-191.0339202880859	833.943603515625	519.3446044921875	-231.9603576660156	831.2713623046875	447.6547241210938	-236.051025390625	957.392822265625	459.5543212890625	-232.0118713378906	659.4570922851562	517.1154174804688	-240.2541046142578	742.936767578125	460.0859985351562	-193.9496307373047	734.7735595703125	503.09326171875	-256.4300231933594	1369.19287109375	884.5790405273438	-275.3448791503906	1304.797607421875	943.4337158203125	-256.5761108398438	1044.717041015625	993.4925537109375	-273.8199768066406	1030.611206054688	896.4671630859375	-90.48444366455078	857.15087890625	965.7929077148438	-126.7708129882812	839.6722412109375	1026.947387695312	-221.1963195800781	983.2877197265625	1009.982971191406	-60.67785263061523	686.5770874023438	970.952880859375	-51.55474472045898	757.1388549804688	986.974609375	-105.2010803222656	753.1727294921875	1028.988891601562	-243.0623626708984	1584.796264648438	817.0479125976562	-111.4863967895508	1570.759643554688	666.9639892578125	-111.7006378173828	1583.0087890625	789.2167358398438	-260.90283203125	1568.03564453125	656.4943237304688	-203.9608459472656	956.1183471679688	550.9542236328125	-272.8730773925781	929.7859497070312	906.4000244140625	-131.9792938232422	941.8764038085938	879.0336303710938	-100.884895324707	951.0968017578125	619.1900024414062	-67.50990295410156	469.2189025878906	643.478759765625	-100.9070587158203	604.0847778320312	606.3167724609375	-176.7545318603516	37.92914199829102	701.22265625	-116.860107421875	236.3257141113281	662.5963745117188	28.47273826599121	44.83805084228516	788.8073120117188	-52.77779388427734	46.15954208374023	811.6475830078125	-49.3190803527832	39.7963752746582	705.9901733398438	-220.0628814697266	38.62734603881836	753.0194702148438	-214.7416229248047	448.2161560058594	913.6010131835938	-188.3590698242188	702.4158935546875	919.2073364257812	-557.6986694335938	184.6873016357422	877.2589111328125	-284.6482238769531	342.8374328613281	903.7243041992188	-473.4840393066406	42.43093872070312	808.9928588867188	-507.6266784667969	102.6701431274414	781.2684936523438	-532.3386840820312	101.7837753295898	879.6432495117188	-598.3768310546875	244.7218780517578	821.316162109375	nan	nan	nan	nan	nan	nan	nan	nan	nan	
